<?xml version="1.0" encoding="utf-8"?>
<svg viewBox="0 0 208 60" xmlns="http://www.w3.org/2000/svg" xmlns:bx="https://boxy-svg.com" width="208px" height="60px">
  <defs>
    <bx:grid x="0" y="0" width="190" height="80"/>
    <radialGradient gradientUnits="userSpaceOnUse" cx="368.637" cy="503.712" r="470" id="gradient-2" gradientTransform="matrix(1.355421, -0.173762, 0.163223, 1.273213, 88.174377, -170.614502)">
      <stop offset="0" style="stop-color: rgb(0, 170, 237);"/>
      <stop offset="1" style="stop-color: rgb(0, 145, 202);"/>
    </radialGradient>
    <radialGradient id="gradient-1" gradientUnits="userSpaceOnUse" cx="152.286" cy="126.898" r="330" gradientTransform="matrix(1.039247, -1.777209, 1.78609, 1.044436, 62.410156, 330.08235)">
      <stop offset="0" style="stop-color: rgb(0, 170, 237);"/>
      <stop offset="1" style="stop-color: rgb(0, 145, 202);"/>
    </radialGradient>
    <linearGradient id="gradient-0" gradientUnits="userSpaceOnUse" x1="330" y1="0" x2="330" y2="660" gradientTransform="matrix(1.596375, -0.317886, 0.318632, 1.600101, -118.901978, 89.609388)">
      <stop offset="0" style="stop-color: rgb(152, 226, 255);"/>
      <stop offset="1" style="stop-color: rgb(78, 193, 239);"/>
    </linearGradient>
  </defs>
  <g transform="matrix(0.341978, 0, 0, 0.341978, -3.075164, -2.277297)">
    <g transform="matrix(0.174204, 0, 0, 0.174204, 7.222769, 5.247252)">
      <title>Logo</title>
      <rect style="stroke: rgb(121, 212, 248); stroke-linecap: round; stroke-miterlimit: 4; stroke-dasharray: none; stroke-opacity: 1; paint-order: stroke markers; fill-opacity: 1; fill: url(&quot;#gradient-2&quot;); stroke-width: 33.5717px;" id="rect949" width="940" height="940" x="40" y="40" ry="144.011"/>
      <circle style="fill: url(&quot;#gradient-1&quot;); stroke: url(&quot;#gradient-0&quot;); paint-order: fill; stroke-width: 16.7859px; visibility: hidden;" cx="513.732" cy="511.681" r="537.146">
        <title>Main circle</title>
      </circle>
      <g transform="matrix(17.185528, 0, 0, 17.185528, -3233.200684, -1922.432495)">
        <path d="M 238.93 156.931 C 238.93 158.591 237.36 159.931 235.43 159.931 L 200.43 159.931 C 198.5 159.931 196.93 158.591 196.93 156.931 L 196.93 126.931 C 196.93 125.271 198.5 123.931 200.43 123.931 L 235.43 123.931 C 237.36 123.931 238.93 125.271 238.93 126.931 L 238.93 156.931 Z" fill="none" style="stroke-width: 1.7093px;"/>
        <path d="M 196.93 133.931 L 224.41 133.931 L 224.41 159.931 L 200.43 159.931 C 198.49 159.931 196.93 158.591 196.93 156.931 L 196.93 133.931 Z" style="fill: rgb(212, 243, 255);"/>
        <path d="M 238.93 133.931 L 238.93 156.931 C 238.93 158.591 237.37 159.931 235.43 159.931 L 224.41 159.931 L 224.41 133.931 L 238.93 133.931 Z" style="fill: rgb(212, 243, 255);"/>
        <path d="M 196.93 126.931 C 196.93 125.271 198.49 123.931 200.43 123.931 L 235.43 123.931 C 237.37 123.931 238.93 125.271 238.93 126.931 L 238.93 133.931 L 196.93 133.931 L 196.93 126.931 Z" style="fill: rgb(179, 233, 255);"/>
        <path d="M 203.439 128.398 C 203.439 130.068 201.631 131.112 200.184 130.277 C 199.513 129.889 199.099 129.173 199.099 128.398 C 199.099 126.723 200.912 125.677 202.362 126.514 C 203.035 126.903 203.449 127.621 203.449 128.398 L 203.439 128.398 Z M 209.389 128.398 C 209.389 130.068 207.581 131.112 206.134 130.277 C 205.463 129.889 205.049 129.173 205.049 128.398 C 205.049 126.727 206.858 125.683 208.304 126.518 C 208.976 126.906 209.389 127.622 209.389 128.398 Z M 215.289 128.398 C 215.289 130.068 213.481 131.112 212.034 130.277 C 211.363 129.889 210.949 129.173 210.949 128.398 C 210.949 126.727 212.758 125.683 214.204 126.518 C 214.876 126.906 215.289 127.622 215.289 128.398 Z" style="fill: rgb(1, 162, 228);"/>
        <path d="M 220.13 154.821 L 210.23 151.701 L 210.12 151.661 L 210.02 151.581 L 204.88 147.561 L 204.74 147.461 L 204.67 147.291 L 201.56 140.241 L 202.84 139.681 L 205.88 146.571 L 210.78 150.401 L 220.56 153.491 L 220.13 154.821 Z" style="fill: rgb(0, 145, 202); stroke: rgb(0, 145, 202);"/>
        <path d="M 219.41 152.061 C 220.95 152.061 221.912 153.727 221.142 155.061 C 220.785 155.679 220.125 156.061 219.41 156.061 C 217.871 156.061 216.908 154.394 217.678 153.061 C 218.036 152.442 218.696 152.061 219.41 152.061 Z M 209.88 148.961 C 211.42 148.961 212.382 150.627 211.612 151.961 C 211.255 152.579 210.595 152.961 209.88 152.961 C 208.341 152.961 207.378 151.294 208.148 149.961 C 208.506 149.342 209.166 148.961 209.88 148.961 Z M 205.16 144.961 C 206.7 144.961 207.662 146.627 206.892 147.961 C 206.535 148.579 205.875 148.961 205.16 148.961 C 203.621 148.961 202.658 147.294 203.428 145.961 C 203.786 145.342 204.446 144.961 205.16 144.961 Z M 202.42 137.101 C 203.96 137.101 204.922 138.767 204.152 140.101 C 203.795 140.719 203.135 141.101 202.42 141.101 C 200.881 141.101 199.918 139.434 200.688 138.101 C 201.046 137.482 201.706 137.101 202.42 137.101 Z" style="fill: rgb(0, 145, 202);"/>
        <path d="M 228.03 144.519 L 236.2 144.519 L 236.2 148.579 L 228.03 148.579 L 228.03 144.519 Z M 228.03 137.519 L 236.2 137.519 L 236.2 141.579 L 228.03 141.579 L 228.03 137.519 Z" style="fill: rgb(4, 161, 228);"/>
        <path style="fill: none; stroke: rgb(0, 145, 202); stroke-width: 1.95349px;" d="M 224.409 133.928 L 224.399 159.935"/>
        <path style="fill: none; stroke: rgb(0, 145, 202); stroke-width: 1.95349px;" d="M 196.924 133.951 L 238.939 133.961"/>
      </g>
    </g>
    <g transform="matrix(1, 0, 0, 1, -3.848826, -4.564161)" style="">
      <title>Text</title>
      <path d="M 224.881 62.515 L 224.553 57.355 L 249.287 53.997 Q 248.959 49.493 246.175 46.585 Q 243.39 43.678 238.476 43.678 Q 233.398 43.678 230.081 47.323 Q 226.764 50.967 226.764 57.765 L 226.764 59.567 Q 227.338 66.119 231.064 69.517 Q 234.791 72.916 241.261 72.916 Q 244.7 72.916 247.485 71.77 Q 250.27 70.623 251.908 69.313 Q 252.809 69.886 253.341 70.664 Q 253.873 71.442 253.873 72.425 Q 253.873 73.981 252.112 75.332 Q 250.352 76.684 247.444 77.503 Q 244.537 78.322 240.933 78.322 Q 234.627 78.322 229.999 76.029 Q 225.372 73.735 222.874 69.19 Q 220.376 64.644 220.376 58.092 Q 220.376 53.424 221.727 49.78 Q 223.079 46.135 225.495 43.596 Q 227.911 41.057 231.269 39.706 Q 234.627 38.355 238.558 38.355 Q 243.554 38.355 247.362 40.484 Q 251.171 42.613 253.341 46.422 Q 255.511 50.23 255.511 55.144 Q 255.511 56.946 254.692 57.724 Q 253.873 58.502 252.399 58.666 Z M 278.52 72.998 Q 281.96 72.998 284.212 72.302 Q 286.465 71.606 287.447 70.951 L 287.447 59.075 L 277.292 60.14 Q 273.033 60.468 270.986 62.024 Q 268.938 63.58 268.938 66.528 Q 268.938 69.558 271.354 71.278 Q 273.77 72.998 278.52 72.998 Z M 278.438 38.355 Q 285.564 38.355 289.741 41.549 Q 293.918 44.743 293.918 51.622 L 293.918 71.033 Q 293.918 72.834 293.221 73.776 Q 292.525 74.718 291.133 75.537 Q 289.167 76.602 285.891 77.503 Q 282.615 78.404 278.52 78.404 Q 270.822 78.404 266.604 75.373 Q 262.386 72.343 262.386 66.61 Q 262.386 61.287 265.949 58.461 Q 269.511 55.635 275.818 55.062 L 287.447 53.916 L 287.447 51.622 Q 287.447 47.527 284.99 45.644 Q 282.533 43.76 278.357 43.76 Q 274.999 43.76 271.927 44.743 Q 268.856 45.726 266.481 46.954 Q 265.826 46.381 265.293 45.603 Q 264.761 44.825 264.761 44.006 Q 264.761 41.876 267.136 40.73 Q 269.348 39.583 272.255 38.969 Q 275.162 38.355 278.438 38.355 Z M 332.574 67.183 Q 332.574 72.425 328.724 75.373 Q 324.875 78.322 317.586 78.322 Q 311.362 78.322 307.43 76.397 Q 303.499 74.472 303.499 72.179 Q 303.499 71.196 304.032 70.255 Q 304.564 69.313 305.629 68.739 Q 307.84 70.296 310.788 71.606 Q 313.737 72.916 317.504 72.916 Q 326.022 72.916 326.022 67.183 Q 326.022 64.808 324.589 63.293 Q 323.155 61.778 320.371 61.123 L 313.573 59.321 Q 308.577 58.092 306.284 55.513 Q 303.991 52.933 303.991 49.083 Q 303.991 44.743 307.512 41.549 Q 311.034 38.355 318.241 38.355 Q 322.091 38.355 324.957 39.133 Q 327.824 39.911 329.421 41.18 Q 331.018 42.45 331.018 43.924 Q 331.018 44.988 330.485 45.807 Q 329.953 46.626 329.052 47.036 Q 328.069 46.381 326.554 45.603 Q 325.039 44.825 322.991 44.292 Q 320.944 43.76 318.487 43.76 Q 314.883 43.76 312.672 45.152 Q 310.461 46.545 310.461 49.083 Q 310.461 50.885 311.73 52.237 Q 313 53.588 315.784 54.243 L 321.435 55.635 Q 327.005 56.946 329.789 59.771 Q 332.574 62.597 332.574 67.183 Z M 348.953 68.821 Q 347.561 66.201 345.595 61.737 Q 343.63 57.273 341.541 51.745 Q 339.453 46.217 337.569 40.484 Q 338.142 39.665 339.084 39.174 Q 340.026 38.682 341.091 38.682 Q 342.483 38.682 343.384 39.419 Q 344.285 40.156 344.858 41.876 Q 347.315 48.756 350.018 55.554 Q 352.72 62.351 355.996 69.64 L 356.324 69.64 Q 358.044 66.201 359.928 61.041 Q 361.811 55.881 363.531 50.148 Q 365.251 44.415 366.398 39.337 Q 366.971 39.092 367.667 38.887 Q 368.363 38.682 369.182 38.682 Q 370.575 38.682 371.476 39.378 Q 372.376 40.074 372.376 41.467 Q 372.376 42.777 371.639 45.848 Q 370.902 48.92 369.633 52.974 Q 368.363 57.028 366.684 61.573 Q 365.005 66.119 363.081 70.5 Q 361.156 74.882 359.191 78.404 Q 355.423 85.365 352.311 89.092 Q 349.199 92.818 346.578 92.818 Q 344.694 92.818 343.671 91.835 Q 342.647 90.852 342.401 89.542 Q 344.203 87.986 346.455 85.406 Q 348.707 82.826 350.796 79.837 Q 352.884 76.848 354.195 74.145 Q 352.802 73.735 351.615 72.671 Q 350.427 71.606 348.953 68.821 Z" style="line-height: 191.825px; text-wrap-mode: nowrap;"/>
      <path d="M 236.943 153.261 Q 239.4 153.261 241.366 152.77 Q 243.331 152.278 244.232 151.705 L 244.232 142.368 L 236.124 143.187 Q 232.766 143.433 231.005 144.62 Q 229.244 145.808 229.244 148.101 Q 229.244 150.476 231.128 151.869 Q 233.012 153.261 236.943 153.261 Z M 236.534 119.846 Q 244.56 119.846 249.31 123.245 Q 254.06 126.643 254.06 133.933 L 254.06 152.77 Q 254.06 154.735 253.118 155.882 Q 252.176 157.028 250.702 157.929 Q 248.409 159.24 244.887 160.1 Q 241.366 160.96 236.943 160.96 Q 228.753 160.96 224.085 157.806 Q 219.416 154.653 219.416 148.429 Q 219.416 142.942 222.897 140.034 Q 226.378 137.127 233.012 136.471 L 244.15 135.325 L 244.15 133.851 Q 244.15 130.575 241.898 129.1 Q 239.646 127.626 235.551 127.626 Q 232.357 127.626 229.326 128.445 Q 226.296 129.264 223.921 130.411 Q 223.102 129.756 222.447 128.609 Q 221.792 127.462 221.792 126.234 Q 221.792 123.286 225.068 121.893 Q 227.361 120.829 230.432 120.337 Q 233.503 119.846 236.534 119.846 Z M 282.609 160.878 Q 288.26 160.878 292.642 158.543 Q 297.024 156.209 299.522 151.623 Q 302.019 147.037 302.019 140.157 Q 302.019 133.032 299.358 128.527 Q 296.696 124.023 292.028 121.934 Q 287.359 119.846 281.381 119.846 Q 276.958 119.846 273.436 120.869 Q 269.915 121.893 267.54 123.286 Q 265.82 124.35 265.083 125.579 Q 264.345 126.807 264.345 128.691 L 264.345 155.554 L 274.419 155.554 L 274.419 129.674 Q 275.648 128.937 277.368 128.404 Q 279.087 127.872 281.381 127.872 Q 284.329 127.872 286.704 129.1 Q 289.079 130.329 290.431 132.991 Q 291.782 135.652 291.782 140.157 Q 291.782 146.627 288.915 149.698 Q 286.049 152.77 281.135 152.77 Q 278.187 152.77 276.016 151.746 Q 273.846 150.722 272.29 149.412 L 272.29 158.093 Q 274.01 159.158 276.671 160.018 Q 279.333 160.878 282.609 160.878 Z M 274.419 152.77 L 264.345 152.688 L 264.345 170.296 Q 264.345 172.917 265.697 173.982 Q 267.048 175.046 269.833 175.046 Q 271.307 175.046 272.535 174.842 Q 273.764 174.637 274.419 174.391 Z M 328.854 160.878 Q 334.505 160.878 338.886 158.543 Q 343.268 156.209 345.766 151.623 Q 348.264 147.037 348.264 140.157 Q 348.264 133.032 345.602 128.527 Q 342.94 124.023 338.272 121.934 Q 333.604 119.846 327.625 119.846 Q 323.203 119.846 319.681 120.869 Q 316.159 121.893 313.784 123.286 Q 312.064 124.35 311.327 125.579 Q 310.59 126.807 310.59 128.691 L 310.59 155.554 L 320.664 155.554 L 320.664 129.674 Q 321.892 128.937 323.612 128.404 Q 325.332 127.872 327.625 127.872 Q 330.574 127.872 332.949 129.1 Q 335.324 130.329 336.675 132.991 Q 338.026 135.652 338.026 140.157 Q 338.026 146.627 335.16 149.698 Q 332.293 152.77 327.379 152.77 Q 324.431 152.77 322.261 151.746 Q 320.09 150.722 318.534 149.412 L 318.534 158.093 Q 320.254 159.158 322.916 160.018 Q 325.578 160.878 328.854 160.878 Z M 320.664 152.77 L 310.59 152.688 L 310.59 170.296 Q 310.59 172.917 311.941 173.982 Q 313.293 175.046 316.077 175.046 Q 317.551 175.046 318.78 174.842 Q 320.008 174.637 320.664 174.391 Z M 357.413 138.109 L 367.486 138.601 L 367.486 159.567 Q 366.831 159.813 365.603 160.018 Q 364.374 160.222 362.9 160.222 Q 360.115 160.222 358.764 159.199 Q 357.413 158.175 357.413 155.554 Z M 367.486 143.761 L 357.413 143.269 L 357.413 106.496 Q 357.986 106.332 359.255 106.087 Q 360.525 105.841 361.917 105.841 Q 364.865 105.841 366.176 106.865 Q 367.486 107.888 367.486 110.509 Z M 378.077 109.444 Q 378.077 107.069 379.756 105.431 Q 381.435 103.793 383.973 103.793 Q 386.594 103.793 388.191 105.431 Q 389.788 107.069 389.788 109.444 Q 389.788 111.738 388.191 113.417 Q 386.594 115.096 383.973 115.096 Q 381.435 115.096 379.756 113.417 Q 378.077 111.738 378.077 109.444 Z M 378.896 138.109 L 389.051 138.109 L 389.051 159.567 Q 388.396 159.813 387.168 160.018 Q 385.939 160.222 384.465 160.222 Q 381.68 160.222 380.288 159.199 Q 378.896 158.175 378.896 155.554 Z M 389.051 143.269 L 378.896 143.269 L 378.896 121.32 Q 379.551 121.074 380.82 120.869 Q 382.09 120.665 383.564 120.665 Q 386.43 120.665 387.741 121.688 Q 389.051 122.712 389.051 125.415 Z M 419.819 127.954 Q 414.905 127.954 411.588 131.148 Q 408.271 134.342 408.271 140.485 Q 408.271 146.545 411.465 149.657 Q 414.659 152.77 419.737 152.77 Q 422.767 152.77 424.856 151.991 Q 426.944 151.213 428.5 150.313 Q 429.729 151.05 430.425 152.073 Q 431.121 153.097 431.121 154.571 Q 431.121 157.356 427.763 159.117 Q 424.405 160.878 418.918 160.878 Q 412.694 160.878 407.984 158.625 Q 403.275 156.373 400.613 151.787 Q 397.952 147.2 397.952 140.485 Q 397.952 133.523 400.777 128.937 Q 403.603 124.35 408.312 122.098 Q 413.021 119.846 418.672 119.846 Q 424.078 119.846 427.354 121.729 Q 430.63 123.613 430.63 126.398 Q 430.63 127.626 429.974 128.691 Q 429.319 129.756 428.418 130.411 Q 426.78 129.428 424.733 128.691 Q 422.685 127.954 419.819 127.954 Z M 454.899 153.261 Q 457.356 153.261 459.321 152.77 Q 461.287 152.278 462.188 151.705 L 462.188 142.368 L 454.08 143.187 Q 450.722 143.433 448.961 144.62 Q 447.2 145.808 447.2 148.101 Q 447.2 150.476 449.084 151.869 Q 450.967 153.261 454.899 153.261 Z M 454.489 119.846 Q 462.515 119.846 467.265 123.245 Q 472.016 126.643 472.016 133.933 L 472.016 152.77 Q 472.016 154.735 471.074 155.882 Q 470.132 157.028 468.658 157.929 Q 466.365 159.24 462.843 160.1 Q 459.321 160.96 454.899 160.96 Q 446.709 160.96 442.04 157.806 Q 437.372 154.653 437.372 148.429 Q 437.372 142.942 440.853 140.034 Q 444.333 137.127 450.967 136.471 L 462.106 135.325 L 462.106 133.851 Q 462.106 130.575 459.853 129.1 Q 457.601 127.626 453.506 127.626 Q 450.312 127.626 447.282 128.445 Q 444.252 129.264 441.876 130.411 Q 441.057 129.756 440.402 128.609 Q 439.747 127.462 439.747 126.234 Q 439.747 123.286 443.023 121.893 Q 445.316 120.829 448.387 120.337 Q 451.459 119.846 454.489 119.846 Z M 482.383 138.109 L 492.457 138.109 L 492.457 147.774 Q 492.457 150.476 494.054 151.623 Q 495.651 152.77 498.599 152.77 Q 499.909 152.77 501.425 152.442 Q 502.94 152.114 504.004 151.623 Q 504.578 152.278 505.069 153.179 Q 505.561 154.08 505.561 155.39 Q 505.561 157.765 503.308 159.322 Q 501.056 160.878 496.306 160.878 Q 489.836 160.878 486.109 157.97 Q 482.383 155.063 482.383 148.511 Z M 488.525 129.756 L 488.525 121.811 L 504.578 121.811 Q 504.905 122.385 505.274 123.449 Q 505.642 124.514 505.642 125.661 Q 505.642 127.708 504.66 128.732 Q 503.677 129.756 502.121 129.756 Z M 492.457 140.321 L 482.383 140.321 L 482.383 110.837 Q 483.038 110.591 484.308 110.345 Q 485.577 110.1 486.969 110.1 Q 489.836 110.1 491.146 111.123 Q 492.457 112.147 492.457 114.768 Z M 513.259 109.444 Q 513.259 107.069 514.938 105.431 Q 516.617 103.793 519.156 103.793 Q 521.777 103.793 523.374 105.431 Q 524.971 107.069 524.971 109.444 Q 524.971 111.738 523.374 113.417 Q 521.777 115.096 519.156 115.096 Q 516.617 115.096 514.938 113.417 Q 513.259 111.738 513.259 109.444 Z M 514.078 138.109 L 524.234 138.109 L 524.234 159.567 Q 523.579 159.813 522.35 160.018 Q 521.122 160.222 519.647 160.222 Q 516.863 160.222 515.47 159.199 Q 514.078 158.175 514.078 155.554 Z M 524.234 143.269 L 514.078 143.269 L 514.078 121.32 Q 514.733 121.074 516.003 120.869 Q 517.272 120.665 518.746 120.665 Q 521.613 120.665 522.923 121.688 Q 524.234 122.712 524.234 125.415 Z M 573.101 140.321 Q 573.101 146.627 570.644 151.254 Q 568.187 155.882 563.724 158.38 Q 559.26 160.878 553.2 160.878 Q 547.139 160.878 542.634 158.38 Q 538.13 155.882 535.632 151.295 Q 533.134 146.709 533.134 140.321 Q 533.134 134.014 535.673 129.428 Q 538.212 124.842 542.716 122.344 Q 547.221 119.846 553.2 119.846 Q 559.178 119.846 563.642 122.344 Q 568.105 124.842 570.603 129.469 Q 573.101 134.096 573.101 140.321 Z M 553.2 127.872 Q 548.695 127.872 546.115 131.148 Q 543.535 134.424 543.535 140.321 Q 543.535 146.381 546.074 149.616 Q 548.613 152.851 553.2 152.851 Q 557.704 152.851 560.243 149.575 Q 562.782 146.299 562.782 140.321 Q 562.782 134.506 560.243 131.189 Q 557.704 127.872 553.2 127.872 Z M 617.476 134.424 L 617.476 142.368 L 607.402 142.368 L 607.402 134.833 Q 607.402 131.23 605.354 129.551 Q 603.307 127.872 599.867 127.872 Q 597.328 127.872 595.322 128.486 Q 593.315 129.1 591.759 129.919 L 591.759 142.368 L 581.685 142.368 L 581.685 129.264 Q 581.685 127.299 582.504 126.029 Q 583.323 124.76 584.961 123.695 Q 587.418 122.057 591.309 120.951 Q 595.199 119.846 599.949 119.846 Q 608.221 119.846 612.848 123.531 Q 617.476 127.217 617.476 134.424 Z M 581.685 138.355 L 591.759 138.355 L 591.759 159.567 Q 591.104 159.813 589.875 160.018 Q 588.647 160.222 587.173 160.222 Q 584.388 160.222 583.037 159.199 Q 581.685 158.175 581.685 155.554 Z M 607.402 138.355 L 617.476 138.355 L 617.476 159.567 Q 616.902 159.813 615.633 160.018 Q 614.363 160.222 612.971 160.222 Q 610.105 160.222 608.753 159.199 Q 607.402 158.175 607.402 155.554 Z" style="line-height: 191.825px; text-wrap-mode: nowrap;"/>
    </g>
  </g>
</svg>